<?xml version="1.0" encoding="utf-8"?>
<svg version="1.1" id="Layer_1"
xmlns="http://www.w3.org/2000/svg"
xmlns:xlink="http://www.w3.org/1999/xlink"
width="417px" height="95px"
xml:space="preserve">
<g id="PathID_39" transform="matrix(-0.0414423, 0.273982, -0.447225, -0.0676469, 420, 32.7)" opacity="1">
<path style="fill:#624890;fill-opacity:1" d="M158.15 26.65Q185.35 53 185.35 90.25Q185.35 127.75 158.15 154.2Q130.85 180.7 92.8 180.7Q54.6 180.7 27.4 154.2Q0 127.75 0 90.25Q0 53 27.4 26.65Q54.6 0 92.8 0Q130.85 0 158.15 26.65M92.8 7.6Q57.5 7.6 32.7 32Q7.65 56.25 7.65 90.25Q7.65 124.5 32.7 148.75Q57.5 173.25 92.8 173.25Q127.95 173.25 152.85 148.75Q177.75 124.5 177.75 90.25Q177.75 56.25 152.85 32Q127.95 7.6 92.8 7.6M149.15 34.7Q172.45 57.75 172.45 90.15Q172.45 122.65 149.15 145.75Q125.75 168.8 92.8 168.8Q60 168.8 36.6 145.75Q13.2 122.65 13.2 90.15Q13.2 57.75 36.6 34.7Q60 11.6 92.8 11.6Q125.75 11.6 149.15 34.7" />
</g>
<g id="PathID_40" transform="matrix(-0.0414423, 0.273982, -0.447225, -0.0676469, 420, 32.7)" opacity="1">
</g>
<g id="PathID_41" transform="matrix(0.805528, 0, 0, 0.805528, 100.1, 65.75)" opacity="1">
<path style="fill:#54AC4D;fill-opacity:1" d="M21.85 -14.2Q21.85 -18.4 20.55 -20.2Q19.3 -22 16.65 -22Q15.5 -22 14.35 -21.6Q13.2 -21.25 12.1 -20.5L12.1 -6.4Q12.95 -6.05 13.8 -5.95L15.55 -5.85Q18.7 -5.85 20.25 -7.9Q21.85 -10 21.85 -14.2M30.85 -14.4Q30.85 -7.7 27.45 -3.55Q24.05 0.55 19 0.55Q16.9 0.55 15.35 0.05Q13.8 -0.4 12.1 -1.4L11.7 0L3.35 0L3.35 -38.9L12.1 -38.9L12.1 -25.15Q14 -26.8 16 -27.8Q18 -28.85 20.6 -28.85Q25.5 -28.85 28.15 -25Q30.85 -21.2 30.85 -14.4" />
</g>
<g id="PathID_42" transform="matrix(0.805528, 0, 0, 0.805528, 100.1, 65.75)" opacity="1">
</g>
<g id="PathID_43" transform="matrix(0.805528, 0, 0, 0.805528, 121.5, 65.75)" opacity="1">
<path style="fill:#54AC4D;fill-opacity:1" d="M11.9 0.75Q8.8 0.75 6.05 0.05Q3.3 -0.6 1.5 -1.5L1.5 -8.9L2.2 -8.9L3.65 -7.8Q4.45 -7.25 5.85 -6.65Q7.1 -6.05 8.6 -5.65Q10.15 -5.25 11.95 -5.25Q13.8 -5.25 15.2 -5.8Q16.65 -6.35 16.65 -7.6Q16.65 -8.6 15.95 -9.1Q15.3 -9.6 13.45 -10.05Q12.45 -10.3 10.9 -10.55Q9.4 -10.85 8.2 -11.25Q4.9 -12.25 3.25 -14.25Q1.6 -16.3 1.6 -19.55Q1.6 -21.45 2.45 -23.1Q3.3 -24.75 5 -26.05Q6.65 -27.35 9.1 -28.1Q11.6 -28.85 14.7 -28.85Q17.65 -28.85 20.1 -28.25Q22.6 -27.65 24.3 -26.85L24.3 -19.75L23.6 -19.75Q23.15 -20.1 22.15 -20.65Q21.2 -21.25 20.25 -21.7Q19.15 -22.2 17.8 -22.5Q16.45 -22.85 15 -22.85Q13.1 -22.85 11.8 -22.2Q10.5 -21.55 10.5 -20.45Q10.5 -19.5 11.15 -18.95Q11.8 -18.4 13.95 -17.9Q15.1 -17.6 16.55 -17.35Q18 -17.1 19.35 -16.65Q22.4 -15.65 23.95 -13.75Q25.55 -11.9 25.55 -8.75Q25.55 -6.8 24.6 -5Q23.7 -3.2 22 -2Q20.2 -0.65 17.75 0.05Q15.3 0.75 11.9 0.75" />
</g>
<g id="PathID_44" transform="matrix(0.805528, 0, 0, 0.805528, 121.5, 65.75)" opacity="1">
</g>
<g id="PathID_45" transform="matrix(0.805528, 0, 0, 0.805528, 138.1, 65.75)" opacity="1">
<path style="fill:#54AC4D;fill-opacity:1" d="M28.9 10.3L20.15 10.3L20.15 -2.75L18.2 -1.25Q17.2 -0.55 16.3 -0.15Q15.15 0.35 14.2 0.55Q13.3 0.75 11.7 0.75Q6.9 0.75 4.1 -3.2Q1.3 -7.15 1.3 -13.8Q1.3 -17.5 2.25 -20.2Q3.2 -22.9 4.85 -24.9Q6.4 -26.7 8.55 -27.75Q10.75 -28.85 13.2 -28.85Q15.3 -28.85 16.8 -28.3Q18.35 -27.8 20.1 -26.8L20.4 -28.1L28.9 -28.1L28.9 10.3M20.15 -7.75L20.15 -21.55Q19.45 -21.85 18.4 -22.05Q17.35 -22.3 16.6 -22.3Q13.45 -22.3 11.85 -20.1Q10.3 -17.9 10.3 -13.95Q10.3 -9.8 11.55 -7.95Q12.8 -6.1 15.65 -6.1Q16.8 -6.1 17.95 -6.55Q19.15 -7 20.15 -7.75" />
</g>
<g id="PathID_46" transform="matrix(0.805528, 0, 0, 0.805528, 138.1, 65.75)" opacity="1">
</g>
<g id="PathID_47" transform="matrix(0.805528, 0, 0, 0.805528, 159.5, 65.75)" opacity="1">
<path style="fill:#54AC4D;fill-opacity:1" d="M29.45 0L20.7 0L20.7 -3.05Q18.4 -1.15 16.5 -0.15Q14.6 0.8 12 0.8Q7.8 0.8 5.45 -1.8Q3.15 -4.45 3.15 -9.75L3.15 -28.1L11.9 -28.1L11.9 -14.15Q11.9 -11.95 12 -10.55Q12.1 -9.2 12.55 -8.25Q12.95 -7.4 13.75 -6.95Q14.6 -6.5 16.1 -6.5Q17.05 -6.5 18.3 -6.95Q19.6 -7.4 20.7 -8.15L20.7 -28.1L29.45 -28.1L29.45 0" />
</g>
<g id="PathID_48" transform="matrix(0.805528, 0, 0, 0.805528, 159.5, 65.75)" opacity="1">
</g>
<g id="PathID_49" transform="matrix(0.805528, 0, 0, 0.805528, 181.3, 65.75)" opacity="1">
<path style="fill:#54AC4D;fill-opacity:1" d="M30.3 -14Q30.3 -7.05 26.5 -3.05Q22.7 0.9 15.8 0.9Q8.9 0.9 5.1 -3.05Q1.3 -7.05 1.3 -14Q1.3 -21.05 5.1 -25Q8.9 -29 15.8 -29Q22.7 -29 26.5 -25Q30.3 -21 30.3 -14M21.3 -13.95Q21.3 -16.45 20.85 -18.1Q20.45 -19.8 19.75 -20.8Q18.95 -21.85 17.95 -22.25Q17 -22.7 15.8 -22.7Q14.6 -22.7 13.65 -22.3Q12.7 -21.95 11.9 -20.9Q11.15 -19.95 10.7 -18.25Q10.3 -16.55 10.3 -13.95Q10.3 -11.4 10.7 -9.8Q11.1 -8.2 11.8 -7.25Q12.5 -6.3 13.55 -5.85Q14.6 -5.4 15.85 -5.4Q16.9 -5.4 17.95 -5.85Q19.05 -6.3 19.7 -7.2Q20.5 -8.25 20.9 -9.75Q21.3 -11.3 21.3 -13.95" />
</g>
<g id="PathID_50" transform="matrix(0.805528, 0, 0, 0.805528, 181.3, 65.75)" opacity="1">
</g>
<g id="PathID_51" transform="matrix(0.805528, 0, 0, 0.805528, 202.15, 65.75)" opacity="1">
<path style="fill:#54AC4D;fill-opacity:1" d="M17.1 0.75Q13.65 0.75 10.75 -0.1Q7.85 -1 5.75 -2.8Q3.65 -4.65 2.45 -7.4Q1.3 -10.15 1.3 -13.9Q1.3 -17.95 2.55 -20.75Q3.85 -23.6 6 -25.4Q8.1 -27.15 10.95 -28Q13.8 -28.85 16.85 -28.85Q19.2 -28.85 21.5 -28.3Q23.85 -27.75 26.2 -26.6L26.2 -19.1L25.05 -19.1Q24.55 -19.6 23.75 -20.2Q23 -20.8 22.1 -21.3Q21.15 -21.8 19.95 -22.15Q18.75 -22.55 17.3 -22.55Q13.95 -22.55 12.1 -20.2Q10.3 -17.85 10.3 -13.9Q10.3 -9.7 12.25 -7.6Q14.2 -5.55 17.45 -5.55Q19.1 -5.55 20.35 -5.9Q21.6 -6.3 22.5 -6.8Q23.35 -7.35 23.95 -7.9Q24.6 -8.45 25.05 -8.95L26.2 -8.95L26.2 -1.4L24.45 -0.65L22.45 0.05Q21.15 0.4 20.05 0.55Q18.95 0.75 17.1 0.75" />
</g>
<g id="PathID_52" transform="matrix(0.805528, 0, 0, 0.805528, 202.15, 65.75)" opacity="1">
</g>
<g id="PathID_53" transform="matrix(0.805528, 0, 0, 0.805528, 219.3, 65.75)" opacity="1">
<path style="fill:#54AC4D;fill-opacity:1" d="M29.65 0L20.9 0L20.9 -13.9Q20.9 -15.6 20.75 -17.25Q20.6 -18.95 20.2 -19.75Q19.75 -20.7 18.9 -21.1Q18.05 -21.55 16.65 -21.55Q15.55 -21.55 14.45 -21.15Q13.35 -20.75 12.1 -19.85L12.1 0L3.35 0L3.35 -38.9L12.1 -38.9L12.1 -24.95Q14.25 -26.8 16.25 -27.8Q18.3 -28.85 20.8 -28.85Q25.1 -28.85 27.35 -26.1Q29.65 -23.4 29.65 -18.25L29.65 0" />
</g>
<g id="PathID_54" transform="matrix(0.805528, 0, 0, 0.805528, 219.3, 65.75)" opacity="1">
</g>
<g id="PathID_55" transform="matrix(0.805528, 0, 0, 0.805528, 241.1, 65.75)" opacity="1">
<path style="fill:#54AC4D;fill-opacity:1" d="M30.3 -14Q30.3 -7.05 26.5 -3.05Q22.7 0.9 15.8 0.9Q8.9 0.9 5.1 -3.05Q1.3 -7.05 1.3 -14Q1.3 -21.05 5.1 -25Q8.9 -29 15.8 -29Q22.7 -29 26.5 -25Q30.3 -21 30.3 -14M21.3 -13.95Q21.3 -16.45 20.85 -18.1Q20.45 -19.8 19.75 -20.8Q18.95 -21.85 17.95 -22.25Q17 -22.7 15.8 -22.7Q14.6 -22.7 13.65 -22.3Q12.7 -21.95 11.9 -20.9Q11.15 -19.95 10.7 -18.25Q10.3 -16.55 10.3 -13.95Q10.3 -11.4 10.7 -9.8Q11.1 -8.2 11.8 -7.25Q12.5 -6.3 13.55 -5.85Q14.6 -5.4 15.85 -5.4Q16.9 -5.4 17.95 -5.85Q19.05 -6.3 19.7 -7.2Q20.5 -8.25 20.9 -9.75Q21.3 -11.3 21.3 -13.95" />
</g>
<g id="PathID_56" transform="matrix(0.805528, 0, 0, 0.805528, 241.1, 65.75)" opacity="1">
</g>
<g id="PathID_57" transform="matrix(0.805528, 0, 0, 0.805528, 261.95, 65.75)" opacity="1">
<path style="fill:#54AC4D;fill-opacity:1" d="M18.75 -7.3L18.75 -13.15L15.15 -12.75Q13.8 -12.6 12.5 -12.1Q11.4 -11.7 10.75 -10.9Q10.15 -10.1 10.15 -8.75Q10.15 -6.8 11.15 -6.05Q12.2 -5.35 14.25 -5.35Q15.4 -5.35 16.55 -5.85Q17.75 -6.35 18.75 -7.3M18.75 -2.95L17.1 -1.6Q16.4 -1 15.25 -0.4Q14.05 0.15 12.95 0.45Q11.85 0.75 9.85 0.75Q6.15 0.75 3.7 -1.75Q1.3 -4.25 1.3 -8.05Q1.3 -11.15 2.5 -13.05Q3.75 -15 6.1 -16.15Q8.45 -17.3 11.7 -17.75Q15 -18.2 18.8 -18.45L18.8 -18.6Q18.8 -20.9 17.1 -21.8Q15.4 -22.7 12 -22.7Q10.45 -22.7 8.4 -22.15Q6.35 -21.6 4.35 -20.75L3.65 -20.75L3.65 -27.5Q4.9 -27.85 7.8 -28.35Q10.7 -28.9 13.65 -28.9Q20.85 -28.9 24.15 -26.45Q27.5 -24.05 27.5 -19.1L27.5 0L18.75 0L18.75 -2.95" />
</g>
<g id="PathID_58" transform="matrix(0.805528, 0, 0, 0.805528, 261.95, 65.75)" opacity="1">
</g>
<g id="PathID_59" transform="matrix(0.805528, 0, 0, 0.805528, 282.05, 65.75)" opacity="1">
<path style="fill:#54AC4D;fill-opacity:1" d="M12.1 0L3.35 0L3.35 -28.1L12.1 -28.1L12.1 0M12.35 -32.1L3.1 -32.1L3.1 -38.95L12.35 -38.95L12.35 -32.1" />
</g>
<g id="PathID_60" transform="matrix(0.805528, 0, 0, 0.805528, 282.05, 65.75)" opacity="1">
</g>
<g id="PathID_61" transform="matrix(0.805528, 0, 0, 0.805528, 289.9, 65.75)" opacity="1">
<path style="fill:#54AC4D;fill-opacity:1" d="M20.15 -8.85L20.15 -21.55Q19.45 -21.85 18.5 -22.05Q17.55 -22.3 16.6 -22.3Q13.45 -22.3 11.85 -20.25Q10.3 -18.2 10.3 -14.55Q10.3 -12.7 10.5 -11.45Q10.75 -10.2 11.4 -9.2Q12.05 -8.25 13.05 -7.75Q14.05 -7.3 15.65 -7.3Q16.8 -7.3 17.95 -7.7Q19.1 -8.1 20.15 -8.85M28.9 -3.2Q28.9 0.7 27.75 3.4Q26.6 6.15 24.65 7.7Q22.7 9.25 19.95 9.9Q17.25 10.6 13.9 10.6Q11.1 10.6 8.6 10.25Q6.1 9.9 4.25 9.45L4.25 2.4L5.25 2.4L6.8 2.95L8.6 3.5L10.65 3.9Q11.7 4.05 12.8 4.05Q15.05 4.05 16.5 3.6Q18 3.15 18.75 2.3Q19.5 1.45 19.8 0.25Q20.15 -0.95 20.15 -2.75L20.15 -3.25Q18.65 -1.95 16.7 -1.15Q14.75 -0.4 12.7 -0.4Q7.2 -0.4 4.25 -3.95Q1.3 -7.5 1.3 -14.75Q1.3 -18.05 2.2 -20.65Q3.1 -23.3 4.75 -25.15Q6.3 -26.9 8.5 -27.85Q10.7 -28.85 13.1 -28.85Q15.25 -28.85 16.95 -28.3Q18.65 -27.75 20.1 -26.85L20.4 -28.1L28.9 -28.1L28.9 -3.2" />
</g>
<g id="PathID_62" transform="matrix(0.805528, 0, 0, 0.805528, 289.9, 65.75)" opacity="1">
</g>
<g id="PathID_63" transform="matrix(0.805528, 0, 0, 0.805528, 311.25, 65.75)" opacity="1">
<path style="fill:#54AC4D;fill-opacity:1" d="M18.75 -7.3L18.75 -13.15L15.15 -12.75Q13.8 -12.6 12.5 -12.1Q11.4 -11.7 10.75 -10.9Q10.15 -10.1 10.15 -8.75Q10.15 -6.8 11.15 -6.05Q12.2 -5.35 14.25 -5.35Q15.4 -5.35 16.55 -5.85Q17.75 -6.35 18.75 -7.3M18.75 -2.95L17.1 -1.6Q16.4 -1 15.25 -0.4Q14.05 0.15 12.95 0.45Q11.85 0.75 9.85 0.75Q6.15 0.75 3.7 -1.75Q1.3 -4.25 1.3 -8.05Q1.3 -11.15 2.5 -13.05Q3.75 -15 6.1 -16.15Q8.45 -17.3 11.7 -17.75Q15 -18.2 18.8 -18.45L18.8 -18.6Q18.8 -20.9 17.1 -21.8Q15.4 -22.7 12 -22.7Q10.45 -22.7 8.4 -22.15Q6.35 -21.6 4.35 -20.75L3.65 -20.75L3.65 -27.5Q4.9 -27.85 7.8 -28.35Q10.7 -28.9 13.65 -28.9Q20.85 -28.9 24.15 -26.45Q27.5 -24.05 27.5 -19.1L27.5 0L18.75 0L18.75 -2.95" />
</g>
<g id="PathID_64" transform="matrix(0.805528, 0, 0, 0.805528, 311.25, 65.75)" opacity="1">
</g>
<g id="PathID_65" transform="matrix(0.54545, 0, 0, 0.54545, 349.65, 58.7)" opacity="1">
<path style="fill:#E9DDA3;fill-opacity:1" d="M25.35 0L20.65 0L20.65 -15.9Q20.65 -17.8 20.45 -19.45Q20.25 -21.15 19.75 -22.15Q19.15 -23.2 18.1 -23.7Q17.1 -24.25 15.35 -24.25Q13.6 -24.25 11.7 -23.3Q9.85 -22.35 8.1 -20.85L8.1 0L3.4 0L3.4 -27.95L8.1 -27.95L8.1 -24.85Q10.2 -26.7 12.25 -27.7Q14.3 -28.75 16.55 -28.75Q20.7 -28.75 23 -26Q25.35 -23.3 25.35 -18.15L25.35 0" />
</g>
<g id="PathID_66" transform="matrix(0.54545, 0, 0, 0.54545, 349.65, 58.7)" opacity="1">
</g>
<g id="PathID_67" transform="matrix(0.54545, 0, 0, 0.54545, 365.2, 58.7)" opacity="1">
<path style="fill:#E9DDA3;fill-opacity:1" d="M15.5 0.65Q8.8 0.65 5.1 -3.1Q1.45 -6.85 1.45 -13.8Q1.45 -20.65 5 -24.7Q8.6 -28.75 14.35 -28.75Q16.95 -28.75 18.95 -27.95Q20.95 -27.2 22.45 -25.6Q23.95 -24 24.75 -21.7Q25.6 -19.4 25.6 -16.05L25.6 -13.5L6.25 -13.5Q6.25 -8.6 8.7 -6Q11.15 -3.45 15.45 -3.45Q17 -3.45 18.5 -3.8Q20 -4.15 21.2 -4.7Q22.45 -5.25 23.3 -5.8Q24.2 -6.35 24.8 -6.85L25.1 -6.85L25.1 -1.7L23 -0.85L20.8 -0.1Q19.45 0.25 18.3 0.45Q17.2 0.65 15.5 0.65M21 -17.1Q20.95 -19 20.55 -20.35Q20.15 -21.75 19.4 -22.7Q18.55 -23.75 17.25 -24.3Q16 -24.85 14.1 -24.85Q12.2 -24.85 10.9 -24.25Q9.6 -23.7 8.5 -22.65Q7.45 -21.55 6.9 -20.2Q6.4 -18.85 6.25 -17.1L21 -17.1" />
</g>
<g id="PathID_68" transform="matrix(0.54545, 0, 0, 0.54545, 365.2, 58.7)" opacity="1">
</g>
<g id="PathID_69" transform="matrix(0.54545, 0, 0, 0.54545, 379.85, 58.7)" opacity="1">
<path style="fill:#E9DDA3;fill-opacity:1" d="M37.25 -27.95L30.15 0L25.8 0L19 -21.5L12.2 0L7.9 0L0.75 -27.95L5.6 -27.95L10.55 -6.3L17.2 -27.95L21.05 -27.95L27.85 -6.3L32.5 -27.95L37.25 -27.95" />
</g>
<g id="PathID_70" transform="matrix(0.54545, 0, 0, 0.54545, 379.85, 58.7)" opacity="1">
</g>
<filter id="filter6" x="-0.529762" y="-0.529762" width="2.26139" height="2.26209" >
<feComponentTransfer in="SourceGraphic">
	<feFuncR type="linear" slope="0"/>
	<feFuncG type="linear" slope="0"/>
	<feFuncB type="linear" slope="0"/>
</feComponentTransfer>
<feGaussianBlur stdDeviation="1 1" />
<feOffset dx="2.12135" dy="2.12129"/>
<feComponentTransfer result="4">
	<feFuncR type="linear" Ue="0" intercept="0.301961"/>
	<feFuncG type="linear" Ue="0" intercept="0.364706"/>
	<feFuncB type="linear" Ue="0" intercept="0.439216"/>
	<feFuncA type="linear" xh="0" slope="0.5"/>
</feComponentTransfer>
<feComposite result="5"  in="SourceGraphic" in2="4" operator="over"/>
</filter>
<g style="filter:url(#filter6);">
<g id="PathID_71" transform="matrix(-0.65, -5.68248e-008, 0, 0.65, 97.55, 0.05)" opacity="1">
<path style="fill:#4A7DBC;fill-opacity:1" d="M137.95 22.55Q139 25.05 140.05 30.6Q138.2 30.75 136.5 28.35L133.65 24.35Q130.65 20.45 124.8 19.05Q119.95 17.85 114.25 18.9Q113.8 18.9 111.85 19.9L109.8 20.75Q123 22.55 134.05 29.95Q140.55 34.35 144 38.45Q150.4 49.5 150 49.5Q148.3 49.8 147.1 48.15L145.1 45.35L140.7 40.5Q137.65 37.75 135.1 37.95Q135.4 39.2 137.6 42.45Q139.25 45.35 139.25 46.95Q139.25 47.55 138.4 48L137.1 48.3Q140 54 140.8 57.6Q142.3 63.9 139.5 66.8Q137.65 60.45 136.3 57.05Q133.75 51.05 128.95 52.2Q129.4 53.6 131.35 56.85Q133 59.85 133.65 61.9Q131.95 61.35 129.95 58.9Q128.05 56.75 127 56.05Q128.55 57.2 129.4 61.65L130.45 68.2Q130.95 71.85 130.65 75.6Q130.15 81.65 127.35 79.75L127 78.4L126.85 76.95L126.3 71.25L125.5 69.6Q124.95 68.55 124.95 68.05L124.55 81.3Q123.7 89.05 120.35 93.6Q118.2 91.2 118.8 86.4Q119.95 80.8 119.95 78.65Q119.95 78.4 118.2 79.9Q116.5 81.3 116.2 81.15Q115.3 81.05 114.8 79.05L114.25 76.35Q113.95 77.2 114.75 83.35Q115.3 88.35 113.25 90L111.85 84.15Q111.15 79.9 109.65 78.65Q109.95 79.2 109.5 81.15Q109.1 82.6 108.5 83.65L100.2 78.4L99.35 81.75L98.65 84.9L98.1 86.4L97.4 87.75L96.1 88.1L94.75 88.35Q93.1 89.05 92.5 92.25Q91.8 95.5 90.7 96.35Q90 96.45 90 95.2Q90 93.8 89.5 93.8Q85.9 95.85 79.35 100.65Q73.2 104.25 66.75 103.45Q66 103.8 65.2 104.5L63.9 105.8Q65.35 109.05 61.35 115.35L55.3 124.7Q53.1 129.9 53.15 131.65Q53.15 133.5 54.95 135.1L57.9 137.65Q57.05 137.95 56.75 138.2L55.5 138.45L58.15 140.4Q59.65 141.55 59.8 143.1L54.7 142.95Q51.6 142.8 50.2 140.95Q46.45 146.2 32.2 145.65Q32.65 143.8 33 143.25L29.2 143.35L25.45 142.8Q26.85 140.95 30.15 140.4L35.4 139.65Q29.45 137.6 26.85 135.9Q27.9 133.7 31.85 134.05L38 134.55L37.45 133.8Q37 133.35 36.45 133.2Q38 133.05 42.3 133.2Q46.05 133.2 47.3 131.65Q48.85 130.2 49.9 127.5L51.4 122.8Q53.15 116.8 47.8 109.95L37.95 99.6Q35.65 97.05 31 95.35L22.9 92.5Q15.7 89.05 10.15 82.5Q3.85 75.2 2.65 66.8Q1.9 60.8 4 52.8Q9.15 39.55 8.65 39.2Q8.05 38.7 4.55 37Q2.1 33 4.7 29.05Q8.6 23.85 8.65 22.5Q4.45 20.75 0 21Q0.55 19.05 4 17.7Q7.9 16.3 8.9 15Q4.95 13.6 3.85 8.3Q4.3 7.85 4.95 8.3L5.7 9.3Q6.25 8.1 4.7 5.15Q5.55 4 6.85 5.7Q8.3 7.35 7.9 7.35Q8.6 7.35 9.15 5.55Q9.6 3.25 10 2.1Q10.65 2.6 10.7 3.9L11 6Q12.25 5.45 13.6 2.9Q14.85 0.4 16.35 0L16.15 2.1Q15.7 3.25 16.05 4.3Q17.05 4.45 18.75 2.6Q20.5 0.55 22 0.4L21.45 2.7Q21 4.15 21.3 5.45Q22.2 5.3 24.05 3.25Q25.8 1.5 27.4 1.35L26.45 3.75Q25.85 5.15 26.1 6.5L29.05 6Q31.5 5.55 32.5 6Q32.8 6.55 31.8 7.45Q30.45 8.65 30.45 9.45Q31 10.15 33.3 10.65Q35.4 11.15 35.95 12Q32.35 12.6 31.5 13.75Q31.8 14.55 32.65 15.3Q33.75 15.85 33.85 16.65Q33.3 18.05 31 18.4L27.15 18.1Q30.9 22.3 35.45 30.9L43.15 45.15Q45.9 47.75 50.65 49.5Q55 51.15 60.2 51.75L72.2 51.15Q78.4 49.8 80.8 46.05L81.95 43.8Q82.5 42.15 83.05 41.25Q83.75 40.05 89.05 32.6Q89.5 31.8 90.7 30.45L92.35 28.5L93.95 25.55Q94.65 23.75 95.5 22.9Q99.7 18.7 105.4 15.75Q112 12.5 117.7 12.5Q126.1 12.6 132.55 16.65Q136.3 18.9 137.95 22.55M40.6 137.1Q39 137.65 38.8 139.05Q42.6 137.85 44.05 136.8L40.6 137.1" />
</g>
<g id="PathID_72" transform="matrix(-0.65, -5.68248e-008, 0, 0.65, 97.55, 0.05)" opacity="1">
</g>
</g>
<g id="PathID_73" transform="matrix(0.259978, -0.166427, -0.166427, -0.259978, 66.5, 83.55)" opacity="1">
<path style="fill:#FFFFFF;fill-opacity:1" d="M168.7 64.6Q169.95 70.3 169.2 70.8Q168.7 71.05 166.25 64.1L160.8 50.7Q162.75 55.55 163.5 60Q164.25 65.35 162.75 65.6Q161.05 66.1 157.45 59.5Q154.95 55.3 150.5 45.25Q152.95 51.2 153.2 55.8Q153.2 60.75 150.75 61Q148.25 61.25 144.15 55.8Q140.45 50.95 137.2 43.75Q139.2 48.7 138.95 52.55Q138.45 56.75 135.7 56.75Q132.85 57 128.9 52.8Q125.15 48.7 122.55 42.75Q124.15 46.95 123.65 50.45Q123.05 53.55 120.3 53.8Q117.6 54.05 114.1 50.95Q110.9 47.95 109.15 43.6Q110 46 109.55 47.95Q109.05 50.2 107.05 50.45Q104.8 50.45 102.85 48.7Q100.6 46.7 99.6 44Q100.1 45.75 99.85 47.2Q99.1 48.7 98 48.95Q96.5 49.2 95 47.95Q93.5 46.7 93 44.75Q92.3 43 92.75 41.5Q93.25 40.25 94.75 40Q96.25 40 97.5 41Q98.85 42 99.6 43.75Q98.6 41.25 99.1 39.3Q99.85 37.65 101.85 37.4Q103.8 37.15 105.8 38.9Q107.8 40.5 108.8 42.75Q107.3 38.9 108.05 36.15Q108.8 33.2 111.65 33.2Q114.35 33.2 117.35 35.95Q120.55 38.65 122.3 42.25Q120.1 37.15 120.55 33.7Q121.05 30.45 123.9 30.7Q126.9 30.95 130.6 34.45Q134.2 37.55 136.35 41.75Q133.6 35.8 133.6 32.45Q133.35 28.75 136.2 29.2Q139.2 29.95 143.15 34.2Q147 38.3 149.35 43.25Q146.15 35.8 145.15 32.7Q143.9 28.75 146.4 29.95Q148.75 31.2 152.45 36.15Q155.95 40.25 158.4 45.25L153.2 34.95Q151.95 32.95 151.95 32.45Q151.7 31.7 152.7 32.45Q154.7 34.45 158.2 39.3Q162 45.25 164.75 51.55Q167.5 58 168.7 64.6M166.25 111.65Q163.75 119.45 159.9 126.5Q155.45 133.95 149.75 139.55Q144.9 144.5 143.4 144Q141.9 143.5 146.15 136.2L155.45 120.2Q151.45 126.25 146.65 130Q141.15 134.45 138.7 132.75Q135.95 130.75 138.95 122.65Q141.4 115.6 147.15 105.15Q143.3 111.75 137.7 115Q132.35 118.2 129.4 115.7Q125.9 113 127.65 104.95Q129.15 97.85 133.85 89.65Q130.4 94.85 125.65 97.35Q120.55 99.85 117.35 96.85Q114.1 93.9 114.85 87.05Q115.6 80.6 119.6 74.5Q116.6 78.6 112.4 80.1Q108.05 81.85 105.3 79.1Q102.35 76.65 102.6 71.55Q102.85 66.6 106.05 62.5Q104.05 64.85 101.35 65.6Q98.5 66.6 96.75 64.85Q94.75 63.5 95 60.75Q95 58 97.25 55.55Q95.75 57 94 57.5Q92.05 58.25 90.8 57.25Q89.55 56.3 89.55 54.55Q89.8 52.8 91.3 51.45Q92.75 49.95 94.75 49.45Q96.5 48.95 97.75 49.7Q98.85 50.7 98.85 52.05Q98.6 53.8 97.5 55.3Q99.35 53.05 102.1 52.3Q104.8 51.8 106.55 53.05Q108.3 54.55 108.3 57Q108.3 59.75 106.55 62.25Q109.55 58.25 113.35 57.25Q117.35 56.3 120.1 58.5Q122.55 61 122.55 65.35Q122.55 69.7 120.2 73.65Q123.45 68.55 127.9 66.85Q132.35 65.35 135.35 68.55Q137.95 71.55 137.7 77.15Q137.45 83.1 134.6 88.4Q138.7 81.35 143.15 78.85Q147.75 76.4 150.25 80.1Q152.7 83.6 152.2 90.4Q151.45 97.1 148.25 103.2Q152.95 94.85 156.7 91.65Q160.8 88.3 162.25 91.9Q163.75 95.1 162.25 102.7Q161.05 109.4 157.95 115.5Q164.5 103.95 165.25 102.95Q168 98.6 168.25 101.45Q168.5 104.7 166.25 111.65M133.1 14.1Q133.35 14.6 128.15 12.1Q122.05 9.1 116.6 6.9Q121.05 8.85 124.9 11.1Q129.15 14.1 129.15 14.7Q129.4 15.7 123.65 13.85Q116.6 11.1 111.65 9.35Q116.6 11.35 120.1 13.85Q123.9 16.7 123.45 17.95Q122.55 20.65 106.05 14.95Q110.75 16.7 113.6 19.15Q116.6 21.9 115.85 23.4Q115.1 25.4 110.25 24.65Q106.05 24.4 100.1 22.15Q104.05 23.9 106.55 26.1Q109.05 28.5 108.3 29.95Q107.3 31.7 103.05 31.7Q99.75 31.45 95.65 30.25Q97.65 30.9 98.85 32.45Q100.35 34.2 99.6 35.45Q99.1 36.65 96.25 36.65Q93.75 36.65 91.05 35.7Q92.75 36.4 93.5 37.4Q94.75 38.65 94.25 39.5Q93.5 40.5 91.8 40.5Q89.8 40.5 87.55 39.75Q85.7 39.15 84.7 37.9Q83.7 36.9 84.2 35.95Q84.95 34.95 86.55 34.95L90.3 35.45Q87.3 34.45 85.95 32.7Q84.45 31.2 85.45 29.95Q86.2 29 88.8 28.75Q91.3 28.75 94.25 29.45Q89.55 28 87.3 25.85Q84.95 23.65 86.2 22.15Q87.55 20.65 91.3 20.4Q95 20.4 99.1 21.9Q93.5 19.65 90.8 17.45Q87.8 15.2 89.3 13.85Q90.8 12.6 95.5 12.6Q99.85 12.85 104.55 14.35Q89.3 8.6 92.5 6.65Q94 5.65 99.1 6.15Q103.55 6.65 108.3 8.15L98 4.4Q93.75 2.65 95.25 2.3L102.1 2.65Q105.3 3.15 108.4 4.15Q104.8 2.8 100.6 1.8Q96.25 0.55 97.25 0.05L104.55 0.55Q111.15 1.55 117.1 3.9Q123.05 6.4 128.15 9.85Q132.6 13.1 133.1 14.1M81.5 32.95Q80 34.45 77 35.7Q79.25 34.95 81 34.95Q82.7 34.95 83.2 35.95Q83.95 36.65 82.7 37.9Q81.75 39.15 79.75 39.75Q77.5 40.5 75.75 40.5Q74.05 40.5 73.4 39.5Q72.9 38.9 73.9 37.65Q74.8 36.65 76.5 35.95Q73.65 36.9 71.45 36.65Q68.7 36.65 67.95 35.45Q67.2 34.2 68.95 32.7Q70.25 31.15 72.4 30.5Q68.05 31.7 64.5 31.7Q60.65 31.95 59.65 30.2Q58.9 28.75 61.35 26.35Q63.5 24.15 67.2 22.65Q61.6 24.65 57.65 25.15Q52.95 25.65 51.95 23.9Q51.2 22.15 54.45 19.4Q57.65 16.95 62.25 14.95Q54.9 17.7 50.45 18.7Q45.35 19.9 44.85 18.45Q44.6 16.95 48.35 14.35Q51.7 11.85 56.15 9.85L44.6 14.35Q39.4 16.2 39.4 15.2Q39.4 14.35 43.9 11.6Q47.6 9.35 51.7 7.4Q46.6 9.35 40.65 12.6Q35.8 14.95 35.8 14.6Q36.3 13.35 40.65 10.35Q45.85 6.65 51.7 4.15Q57.65 1.8 64 0.8L71.45 0.3Q72.4 0.55 67.95 1.8Q62 3.4 57.4 5.15Q61.75 3.65 66.45 2.9L73.15 2.4Q74.55 2.65 70.45 4.4Q64.25 6.65 59.65 8.6Q64.25 6.9 69.2 6.4Q74.05 5.9 75.5 6.9Q78.5 8.85 63.5 14.6Q68.2 13.1 72.65 12.85Q77.25 12.6 78.5 14.1Q80 15.2 77 17.7Q74.3 19.9 68.95 21.9Q72.65 20.65 76.25 20.65Q80.25 20.65 81.5 22.15Q82.7 23.65 80.5 25.85Q78.25 27.75 73.65 29.7Q76.25 28.75 78.75 28.75Q81.5 29 82.2 29.95Q83.2 31.2 81.5 32.95M84.35 61Q87.6 61.05 90.3 62.5Q93.25 64.1 93.25 66.35Q93.25 68.55 90.55 70.3Q87.9 71.75 84.45 71.8Q90.65 71.85 95 74.75Q99.85 77.85 99.85 81.85Q99.85 86.05 95.25 88.9Q90.55 91.9 83.95 92.15Q93 92.15 98.6 95.6Q104.8 99.35 104.3 104.2Q104.05 109.15 98 112.6Q92.05 116.2 84.2 116.2Q95.25 116.45 101.85 119.7Q109.05 122.9 108.3 128Q107.55 132.75 100.35 136.45Q93.75 139.8 85.45 140.05Q97.75 140.05 104.55 142.3Q112.15 144.75 110.9 149Q110 152.85 102.1 156.05Q95 158.8 86.8 159.3Q101.1 159.3 105.8 159.8Q113.35 160.3 111.65 162.4Q110 164.85 102.35 166.85Q93.5 169.35 84.2 169.35Q74.8 169.35 66.2 166.85Q58.4 164.6 56.65 162.15Q54.9 160.05 62.5 159.55Q66.95 159.05 81 159.3Q72.9 158.8 65.95 155.8Q58.15 152.6 56.9 148.75Q55.65 144.5 63.25 142.3Q70.2 140.05 83.2 140.05Q74.05 139.8 67.2 136.2Q60.15 132.5 59.4 127.75Q58.65 122.65 65.45 119.45Q72.15 116.2 82.7 116.2Q75.05 115.95 69.2 112.6Q63.25 108.9 63 103.95Q62.5 99.1 68.45 95.6Q74.3 92.15 82.95 92.15Q76.5 91.9 71.9 88.9Q67.45 86.05 67.45 81.85Q67.45 77.85 72.15 75Q76.75 72.05 83.45 71.8Q79.25 71.8 76.5 70.3Q73.9 68.8 73.9 66.35Q73.9 64.1 76.75 62.75Q79.45 61.05 83.3 61Q80.95 60.95 79.25 60Q77.25 59 77.5 57.75Q77.5 56.3 79.25 55.3Q81 54.3 83.7 54.3Q86.2 54.3 87.8 55.3Q89.8 56.3 89.8 57.5Q89.8 59 88.05 60Q86.25 60.95 84.35 61M59.25 42.55Q60 40.45 61.75 39.15Q64 37.4 65.7 37.4Q67.7 37.65 68.2 39.5Q68.95 41.45 68.25 43.85Q68.75 42.2 69.95 41.25Q71.45 40 72.65 40.25Q74.05 40.25 74.55 41.75Q75.05 43 74.55 45Q73.65 46.7 72.4 47.95Q70.95 49.2 69.45 48.95Q68.2 48.95 67.7 47.45Q67.2 46 67.95 44.25Q66.7 46.95 64.75 48.95Q62.5 50.95 60.65 50.7Q58.65 50.45 58.15 48.2Q57.65 46.25 58.65 43.75Q56.65 48.2 53.45 51.2Q50.2 54.3 47.35 54.05Q44.85 53.8 44.1 50.7Q43.65 47.45 45.35 43.25Q42.65 49.2 39.15 53.05Q35.3 57.25 32.35 57.25Q29.6 57 29.35 52.8Q29.1 48.95 31.35 44Q27.85 51.2 24.25 56.05Q20.3 61.5 17.8 61.25Q15.35 61 15.6 56.05Q15.85 51.45 18.3 45.75L11.5 59.75Q7.75 66.1 6.25 65.85Q4.8 65.6 5.55 60.5Q6.2 56.1 8.25 51.35Q5.65 56.95 3.05 64.35Q0.55 71.05 0.2 70.8Q-0.3 70.55 0.55 64.85Q1.8 58.25 4.55 51.8Q7 45.75 11.25 39.5Q14.35 34.95 16.35 32.95Q17.3 32.2 17.05 32.7Q17.05 33.2 15.85 35.45Q12.95 40.9 11.1 45Q13.35 40.5 16.35 36.65Q20.3 31.7 22.55 30.45Q24.75 29.2 23.75 33.2Q22.8 36.15 19.05 44.25Q21.8 39.15 25.4 34.7Q29.35 30.45 32.1 29.7Q35.05 29.2 34.8 32.95Q34.55 36.4 31.85 42.75Q34.05 38.15 37.4 34.95Q41.15 31.45 44.1 30.95Q47.1 30.7 47.6 34.2Q47.85 37.4 45.6 42.75Q47.35 38.9 50.45 36.15Q53.45 33.45 56.15 33.45Q58.9 33.45 59.65 36.4Q60.4 39.05 59.25 42.55M39.9 67.1Q44.1 68.55 47.85 74.05Q45.35 70.05 45.35 65.6Q45.35 61.25 47.85 58.75Q50.2 56.55 54.2 57.5Q58.1 58.5 61.1 62.2Q59.4 59.95 59.4 57.25Q59.15 54.8 60.9 53.3Q62.75 52.05 65.2 52.55Q67.7 53.3 69.95 55.55Q68.7 54.05 68.45 52.3Q68.45 50.7 69.7 49.95Q70.95 48.95 72.65 49.45Q74.3 49.95 75.75 51.45Q77.25 53.05 77.5 54.8Q77.75 56.55 76.5 57.25Q75.25 58.25 73.4 57.75Q71.45 57.25 70.2 55.8Q72.15 58.25 72.4 60.75Q72.4 63.7 70.7 65.1Q68.7 66.6 65.95 65.85Q63.25 64.85 61.15 62.5Q64.5 66.6 64.75 71.8Q64.95 76.65 62 79.35Q59.4 81.85 54.9 80.35Q50.95 78.6 48.1 74.5Q51.95 80.6 52.7 87.05Q53.45 93.9 50.2 96.85Q47.1 99.6 42.15 97.1Q37.4 94.85 34.05 89.15Q38.65 97.35 40.15 104.95Q41.9 112.85 38.65 115.5Q35.8 117.95 30.35 114.75Q25.4 111.65 21.55 105.4Q27.1 115.5 29.35 122.2Q32.35 130.5 29.6 132.25Q27.35 133.95 22.05 129.75Q17.05 125.8 13.35 119.7L22.55 135.7Q26.65 143.25 25.4 143.5Q24 144 19.05 139.05Q13.6 133.45 9.5 126Q5.55 119.2 3.05 111.4Q0.8 104.45 1.05 101.2Q1.3 98.6 4.05 102.7L11 115.25Q8 109.15 6.5 102.45Q5.3 95.1 6.75 91.65Q8.25 88.3 12 91.65Q15.5 94.8 20.35 102.85Q17.05 96.9 16.55 90.4Q15.85 83.6 18.05 80.1Q20.8 76.65 25.15 78.85Q29.35 81.35 33.6 88.4Q30.6 83.1 30.35 77.4Q30.1 71.55 32.85 68.55Q35.8 65.6 39.9 67.1" />
</g>
<g id="PathID_74" transform="matrix(0.259978, -0.166427, -0.166427, -0.259978, 66.5, 83.55)" opacity="1">
</g>
<g id="PathID_75" transform="matrix(0.014818, 0, 1.29543e-009, -0.014818, 86.85, 11.45)" opacity="1">
<path style="fill:#FFFFFF;fill-opacity:1" d="M103.65 31.25L95 31.25L95 36.1Q106.8 37.85 116.15 44.45L119.8 40.8L115.3 36.65L141.5 29.5L134.55 55.9L130.25 51.4L127.1 54.5Q135.45 64.25 137.7 76.55L142.4 76.55L142.4 67.35L173.65 85.6L142.4 103.65L142.4 95L138.4 95Q136.65 107.85 128.5 118.05L132.15 121.7L136.5 117.2L143.45 143.75L117.2 136.65L121.7 132.3L118.25 128.65Q107.85 136.5 95 138.55L95 142.4L103.65 142.4L85.6 173.65L67.2 142.4L76.55 142.4L76.55 137.85Q64.25 135.45 54.35 127.3L51.4 130.4L55.55 134.75L29.5 141.85L36.3 115.3L40.65 119.8L44.25 116.35Q37.5 106.45 35.95 95L31.4 95L31.4 103.65L0 85.6L31.4 67.35L31.4 76.55L36.65 76.55Q38.7 65.3 45.85 56.45L40.65 51.4L36.3 55.9L29.5 29.5L55.55 36.65L51.4 40.8L56.25 45.85Q65.45 38.7 76.55 36.65L76.55 31.25L67.2 31.25L85.6 0L103.65 31.25" />
</g>
<g id="PathID_76" transform="matrix(0.014818, 0, 1.29543e-009, -0.014818, 86.85, 11.45)" opacity="1">
</g>
</svg>
